<?xml version="1.0" encoding="UTF-8"?>
<svg xmlns="http://www.w3.org/2000/svg" xmlns:xlink="http://www.w3.org/1999/xlink" width="30pt" height="30pt" viewBox="0 0 30 30" version="1.1">
<defs>
<filter id="alpha" filterUnits="objectBoundingBox" x="0%" y="0%" width="100%" height="100%">
  <feColorMatrix type="matrix" in="SourceGraphic" values="0 0 0 0 1 0 0 0 0 1 0 0 0 0 1 0 0 0 1 0"/>
</filter>
<mask id="mask0">
  <g filter="url(#alpha)">
<rect x="0" y="0" width="30" height="30" style="fill:rgb(0%,0%,0%);fill-opacity:0.101961;stroke:none;"/>
  </g>
</mask>
<clipPath id="clip1">
  <rect x="0" y="0" width="30" height="30"/>
</clipPath>
<g id="surface5" clip-path="url(#clip1)">
<path style=" stroke:none;fill-rule:nonzero;fill:rgb(0%,0%,0%);fill-opacity:1;" d="M 6.886719 20.265625 C 6.929688 21.515625 7.121094 22.761719 7.890625 23.800781 C 9.800781 24.015625 11.761719 24.015625 13.59375 24.015625 L 8.363281 19.378906 C 7.960938 19.722656 7.464844 20.027344 6.886719 20.265625 Z M 6.886719 20.265625 "/>
</g>
<mask id="mask1">
  <g filter="url(#alpha)">
<rect x="0" y="0" width="30" height="30" style="fill:rgb(0%,0%,0%);fill-opacity:0.101961;stroke:none;"/>
  </g>
</mask>
<clipPath id="clip2">
  <rect x="0" y="0" width="30" height="30"/>
</clipPath>
<g id="surface8" clip-path="url(#clip2)">
<path style=" stroke:none;fill-rule:nonzero;fill:rgb(0%,0%,0%);fill-opacity:1;" d="M 15.929688 25.847656 C 17.058594 25.71875 17.980469 25.460938 18.726562 25.0625 C 18.734375 23.789062 18.101562 22.671875 17.394531 21.976562 C 16.886719 21.476562 16.070312 21.484375 15.570312 21.996094 C 15.070312 22.503906 15.078125 23.320312 15.585938 23.820312 C 15.792969 24.019531 16.421875 24.738281 16.011719 25.617188 C 15.976562 25.691406 15.949219 25.769531 15.929688 25.847656 Z M 15.929688 25.847656 "/>
</g>
<mask id="mask2">
  <g filter="url(#alpha)">
<rect x="0" y="0" width="30" height="30" style="fill:rgb(0%,0%,0%);fill-opacity:0.101961;stroke:none;"/>
  </g>
</mask>
<clipPath id="clip3">
  <rect x="0" y="0" width="30" height="30"/>
</clipPath>
<g id="surface11" clip-path="url(#clip3)">
<path style=" stroke:none;fill-rule:nonzero;fill:rgb(0%,0%,0%);fill-opacity:1;" d="M 13.054688 22.035156 C 12.585938 21.5 11.773438 21.441406 11.234375 21.910156 C 10.246094 22.769531 10.148438 24.226562 10.414062 25.492188 C 11.21875 25.742188 12.175781 25.886719 13.304688 25.929688 C 13.300781 25.925781 13.300781 25.921875 13.296875 25.917969 C 13.179688 25.753906 12.980469 25.304688 12.898438 24.742188 C 12.816406 24.1875 12.90625 23.90625 12.941406 23.84375 C 13.464844 23.375 13.519531 22.570312 13.054688 22.035156 Z M 13.054688 22.035156 "/>
</g>
<mask id="mask3">
  <g filter="url(#alpha)">
<rect x="0" y="0" width="30" height="30" style="fill:rgb(0%,0%,0%);fill-opacity:0.0509804;stroke:none;"/>
  </g>
</mask>
<clipPath id="clip4">
  <rect x="0" y="0" width="30" height="30"/>
</clipPath>
<g id="surface14" clip-path="url(#clip4)">
<path style=" stroke:none;fill-rule:nonzero;fill:rgb(0%,0%,0%);fill-opacity:1;" d="M 12.933594 14.113281 C 10.21875 14.597656 8.164062 16.808594 8.164062 19.464844 C 8.164062 22.253906 8.515625 24.328125 12.917969 24.621094 C 10.472656 22.140625 10.945312 17.015625 12.933594 14.113281 Z M 12.933594 14.113281 "/>
</g>
<mask id="mask4">
  <g filter="url(#alpha)">
<rect x="0" y="0" width="30" height="30" style="fill:rgb(0%,0%,0%);fill-opacity:0.101961;stroke:none;"/>
  </g>
</mask>
<clipPath id="clip5">
  <rect x="0" y="0" width="30" height="30"/>
</clipPath>
<g id="surface17" clip-path="url(#clip5)">
<path style=" stroke:none;fill-rule:nonzero;fill:rgb(0%,0%,0%);fill-opacity:1;" d="M 23.558594 14.945312 C 23.878906 14.898438 24.175781 14.789062 24.4375 14.628906 L 24.4375 11.9375 L 23.558594 11.9375 Z M 23.558594 14.945312 "/>
<path style=" stroke:none;fill-rule:nonzero;fill:rgb(0%,0%,0%);fill-opacity:1;" d="M 21.976562 14.628906 C 22.238281 14.789062 22.535156 14.898438 22.855469 14.945312 L 22.855469 11.9375 L 21.976562 11.9375 Z M 21.976562 14.628906 "/>
</g>
<mask id="mask5">
  <g filter="url(#alpha)">
<rect x="0" y="0" width="30" height="30" style="fill:rgb(0%,0%,0%);fill-opacity:0.101961;stroke:none;"/>
  </g>
</mask>
<clipPath id="clip6">
  <rect x="0" y="0" width="30" height="30"/>
</clipPath>
<g id="surface20" clip-path="url(#clip6)">
<path style=" stroke:none;fill-rule:nonzero;fill:rgb(0%,0%,0%);fill-opacity:1;" d="M 10.449219 13.410156 C 10.449219 13.628906 10.273438 13.804688 10.050781 13.804688 C 9.832031 13.804688 9.65625 13.628906 9.65625 13.410156 C 9.65625 13.1875 9.832031 13.011719 10.050781 13.011719 C 10.273438 13.011719 10.449219 13.1875 10.449219 13.410156 Z M 10.449219 13.410156 "/>
<path style=" stroke:none;fill-rule:nonzero;fill:rgb(0%,0%,0%);fill-opacity:1;" d="M 13.269531 14.015625 C 13.269531 14.234375 13.09375 14.410156 12.875 14.410156 C 12.65625 14.410156 12.476562 14.234375 12.476562 14.015625 C 12.476562 13.796875 12.65625 13.617188 12.875 13.617188 C 13.09375 13.617188 13.269531 13.796875 13.269531 14.015625 Z M 13.269531 14.015625 "/>
<path style=" stroke:none;fill-rule:nonzero;fill:rgb(0%,0%,0%);fill-opacity:1;" d="M 11.65625 15.367188 C 11.65625 15.585938 11.480469 15.765625 11.257812 15.765625 C 11.039062 15.765625 10.863281 15.585938 10.863281 15.367188 C 10.863281 15.148438 11.039062 14.972656 11.257812 14.972656 C 11.480469 14.972656 11.65625 15.148438 11.65625 15.367188 Z M 11.65625 15.367188 "/>
</g>
<mask id="mask6">
  <g filter="url(#alpha)">
<rect x="0" y="0" width="30" height="30" style="fill:rgb(0%,0%,0%);fill-opacity:0.0509804;stroke:none;"/>
  </g>
</mask>
<clipPath id="clip7">
  <rect x="0" y="0" width="30" height="30"/>
</clipPath>
<g id="surface23" clip-path="url(#clip7)">
<path style=" stroke:none;fill-rule:nonzero;fill:rgb(0%,0%,0%);fill-opacity:1;" d="M 11.40625 3.871094 C 8.835938 4.453125 6.917969 6.75 6.917969 9.496094 L 6.917969 12.148438 C 6.917969 15.007812 9.238281 17.324219 12.097656 17.324219 L 15.238281 17.324219 C 10.664062 14.664062 9.886719 7.347656 11.40625 3.871094 Z M 11.40625 3.871094 "/>
</g>
</defs>
<g id="surface1">
<path style=" stroke:none;fill-rule:nonzero;fill:rgb(28.627451%,54.117647%,40.784314%);fill-opacity:1;" d="M 20.585938 22.480469 C 20.285156 22.480469 19.996094 22.320312 19.847656 22.039062 C 19.558594 21.5 19.097656 21.132812 18.921875 20.996094 L 18.902344 20.980469 C 18.539062 20.691406 18.480469 20.164062 18.769531 19.800781 C 19.054688 19.441406 19.582031 19.378906 19.945312 19.667969 L 19.964844 19.683594 C 20.1875 19.859375 20.871094 20.402344 21.324219 21.246094 C 21.542969 21.65625 21.390625 22.164062 20.980469 22.382812 C 20.855469 22.449219 20.71875 22.480469 20.585938 22.480469 Z M 20.585938 22.480469 "/>
<path style=" stroke:none;fill-rule:nonzero;fill:rgb(80.392157%,35.686275%,35.686275%);fill-opacity:1;" d="M 29.992188 22.167969 C 29.914062 21.65625 29.425781 21.316406 28.921875 21.414062 L 27.265625 21.746094 C 27.042969 21.789062 26.816406 21.734375 26.640625 21.59375 L 26.410156 21.410156 C 26.347656 21.359375 26.363281 21.257812 26.441406 21.230469 L 28.652344 20.421875 C 29.109375 20.257812 29.375 19.761719 29.230469 19.296875 C 29.078125 18.800781 28.542969 18.542969 28.0625 18.71875 L 25.820312 19.53125 C 25.746094 19.558594 25.667969 19.492188 25.683594 19.410156 L 25.742188 19.125 C 25.785156 18.902344 25.925781 18.714844 26.121094 18.605469 L 27.601562 17.792969 C 28.054688 17.546875 28.210938 16.972656 27.9375 16.53125 C 27.683594 16.117188 27.136719 15.988281 26.710938 16.222656 L 25.253906 17.023438 C 24.589844 17.386719 24.125 18.019531 23.972656 18.761719 L 23.703125 20.085938 C 23.671875 20.230469 23.570312 20.351562 23.429688 20.402344 L 18.136719 22.328125 C 17.679688 22.496094 17.414062 22.988281 17.558594 23.453125 C 17.710938 23.949219 18.246094 24.210938 18.730469 24.035156 L 24.046875 22.101562 C 24.1875 22.046875 24.34375 22.074219 24.460938 22.167969 L 25.519531 23.007812 C 26.109375 23.476562 26.875 23.664062 27.617188 23.515625 L 29.25 23.191406 C 29.726562 23.097656 30.0625 22.648438 29.992188 22.167969 Z M 29.992188 22.167969 "/>
<path style=" stroke:none;fill-rule:nonzero;fill:rgb(36.078431%,70.196078%,55.686275%);fill-opacity:1;" d="M 13.59375 24.015625 C 9.683594 24.015625 5.179688 24.015625 1.882812 21.914062 C 1.320312 21.550781 1.648438 20.683594 2.308594 20.769531 C 4.921875 21.121094 7.113281 20.457031 8.363281 19.378906 Z M 13.59375 24.015625 "/>
<path style=" stroke:none;fill-rule:nonzero;fill:rgb(80.392157%,35.686275%,35.686275%);fill-opacity:1;" d="M 4.023438 20.859375 C 3.683594 20.871094 3.332031 20.863281 2.96875 20.839844 L 3.273438 20.09375 C 3.390625 19.8125 3.128906 19.519531 2.835938 19.601562 L 0.289062 20.304688 C 0.0390625 20.371094 -0.0742188 20.65625 0.0507812 20.878906 L 1.371094 23.167969 C 1.523438 23.433594 1.914062 23.40625 2.03125 23.125 L 2.402344 22.21875 C 2.792969 22.4375 3.199219 22.628906 3.617188 22.796875 C 3.847656 22.277344 3.980469 21.496094 4.023438 20.859375 Z M 4.023438 20.859375 "/>
<use xlink:href="#surface5" mask="url(#mask0)"/>
<path style=" stroke:none;fill-rule:nonzero;fill:rgb(28.627451%,54.117647%,40.784314%);fill-opacity:1;" d="M 12.238281 27.945312 C 11.832031 27.945312 11.433594 27.753906 11.183594 27.394531 C 10.355469 26.214844 9.644531 23.292969 11.234375 21.910156 C 11.773438 21.441406 12.585938 21.5 13.054688 22.035156 C 13.519531 22.570312 13.464844 23.375 12.941406 23.84375 C 12.90625 23.90625 12.816406 24.1875 12.898438 24.742188 C 12.980469 25.304688 13.179688 25.753906 13.296875 25.917969 C 13.703125 26.5 13.5625 27.304688 12.980469 27.714844 C 12.753906 27.871094 12.496094 27.945312 12.238281 27.945312 Z M 12.945312 23.839844 Z M 12.945312 23.839844 "/>
<path style=" stroke:none;fill-rule:nonzero;fill:rgb(28.627451%,54.117647%,40.784314%);fill-opacity:1;" d="M 17.175781 27.453125 C 16.992188 27.453125 16.808594 27.414062 16.628906 27.332031 C 15.984375 27.027344 15.707031 26.261719 16.011719 25.617188 C 16.421875 24.738281 15.792969 24.019531 15.585938 23.820312 C 15.078125 23.320312 15.070312 22.503906 15.570312 21.996094 C 16.070312 21.484375 16.886719 21.476562 17.394531 21.976562 C 18.398438 22.960938 19.25 24.792969 18.347656 26.710938 C 18.125 27.179688 17.660156 27.453125 17.175781 27.453125 Z M 17.175781 27.453125 "/>
<use xlink:href="#surface8" mask="url(#mask1)"/>
<use xlink:href="#surface11" mask="url(#mask2)"/>
<path style=" stroke:none;fill-rule:nonzero;fill:rgb(36.078431%,70.196078%,55.686275%);fill-opacity:1;" d="M 19.941406 19.464844 C 19.941406 22.476562 19.53125 24.65625 14.054688 24.65625 C 8.574219 24.65625 8.164062 22.476562 8.164062 19.464844 C 8.164062 16.457031 10.800781 14.015625 14.054688 14.015625 C 17.304688 14.015625 19.941406 16.457031 19.941406 19.464844 Z M 19.941406 19.464844 "/>
<path style=" stroke:none;fill-rule:nonzero;fill:rgb(60.784314%,87.45098%,75.686275%);fill-opacity:1;" d="M 19.941406 19.464844 C 19.941406 19.441406 19.941406 19.417969 19.941406 19.394531 C 18.714844 19.078125 16.28125 18.988281 14.589844 20.789062 C 13.355469 22.097656 13.175781 23.511719 13.308594 24.640625 C 13.546875 24.652344 13.792969 24.65625 14.054688 24.65625 C 19.53125 24.65625 19.941406 22.476562 19.941406 19.464844 Z M 19.941406 19.464844 "/>
<use xlink:href="#surface14" mask="url(#mask3)"/>
<path style=" stroke:none;fill-rule:nonzero;fill:rgb(80.392157%,35.686275%,35.686275%);fill-opacity:1;" d="M 18.589844 6.761719 C 20.070312 5.683594 20.277344 3.554688 19.6875 2.273438 C 19.566406 2.007812 19.199219 1.976562 19.03125 2.214844 C 18.386719 3.136719 16.9375 4.214844 16.1875 4.34375 C 15.976562 4.378906 15.820312 4.5625 15.832031 4.777344 C 15.882812 5.570312 16.707031 6.832031 17.796875 6.972656 C 18.078125 7.011719 18.363281 6.929688 18.589844 6.761719 Z M 18.589844 6.761719 "/>
<path style=" stroke:none;fill-rule:nonzero;fill:rgb(36.078431%,70.196078%,55.686275%);fill-opacity:1;" d="M 19.457031 6.164062 C 18.453125 4.640625 16.75 3.726562 14.929688 3.726562 L 12.6875 3.726562 C 9.5 3.726562 6.917969 6.308594 6.917969 9.496094 L 6.917969 12.148438 C 6.917969 15.007812 9.238281 17.324219 12.097656 17.324219 L 23.976562 17.324219 C 26.117188 17.324219 27.851562 15.589844 27.851562 13.445312 L 27.851562 11.640625 C 27.851562 9.5 26.117188 7.761719 23.976562 7.761719 L 22.4375 7.761719 C 21.238281 7.765625 20.117188 7.164062 19.457031 6.164062 Z M 19.457031 6.164062 "/>
<path style=" stroke:none;fill-rule:nonzero;fill:rgb(100%,100%,100%);fill-opacity:1;" d="M 23.207031 14.972656 C 21.894531 14.972656 20.828125 13.90625 20.828125 12.59375 L 20.828125 12.445312 C 20.828125 12.164062 21.058594 11.9375 21.339844 11.9375 L 25.074219 11.9375 C 25.355469 11.9375 25.585938 12.164062 25.585938 12.445312 L 25.585938 12.59375 C 25.585938 13.90625 24.519531 14.972656 23.207031 14.972656 Z M 23.207031 14.972656 "/>
<use xlink:href="#surface17" mask="url(#mask4)"/>
<use xlink:href="#surface20" mask="url(#mask5)"/>
<path style=" stroke:none;fill-rule:nonzero;fill:rgb(100%,65.882353%,79.607843%);fill-opacity:1;" d="M 12.429688 8.238281 C 12.429688 7.953125 11.984375 7.722656 11.429688 7.722656 C 10.878906 7.722656 10.429688 7.953125 10.429688 8.238281 C 10.429688 8.519531 10.878906 8.75 11.429688 8.75 C 11.984375 8.75 12.429688 8.519531 12.429688 8.238281 Z M 12.429688 8.238281 "/>
<path style=" stroke:none;fill-rule:nonzero;fill:rgb(100%,65.882353%,79.607843%);fill-opacity:1;" d="M 19.148438 8.238281 C 19.148438 7.953125 18.699219 7.722656 18.148438 7.722656 C 17.59375 7.722656 17.148438 7.953125 17.148438 8.238281 C 17.148438 8.519531 17.59375 8.75 18.148438 8.75 C 18.699219 8.75 19.148438 8.519531 19.148438 8.238281 Z M 19.148438 8.238281 "/>
<path style=" stroke:none;fill-rule:nonzero;fill:rgb(28.627451%,31.372549%,34.901961%);fill-opacity:1;" d="M 13.457031 7.597656 C 13.214844 7.597656 13.019531 7.398438 13.019531 7.15625 C 13.019531 6.980469 12.875 6.839844 12.699219 6.839844 C 12.523438 6.839844 12.378906 6.980469 12.378906 7.15625 C 12.378906 7.398438 12.183594 7.597656 11.941406 7.597656 C 11.699219 7.597656 11.5 7.398438 11.5 7.15625 C 11.5 6.496094 12.039062 5.960938 12.699219 5.960938 C 13.359375 5.960938 13.898438 6.496094 13.898438 7.15625 C 13.898438 7.398438 13.699219 7.597656 13.457031 7.597656 Z M 13.457031 7.597656 "/>
<path style=" stroke:none;fill-rule:nonzero;fill:rgb(28.627451%,31.372549%,34.901961%);fill-opacity:1;" d="M 17.636719 7.597656 C 17.394531 7.597656 17.195312 7.398438 17.195312 7.15625 C 17.195312 6.980469 17.054688 6.839844 16.878906 6.839844 C 16.703125 6.839844 16.558594 6.980469 16.558594 7.15625 C 16.558594 7.398438 16.363281 7.597656 16.121094 7.597656 C 15.878906 7.597656 15.679688 7.398438 15.679688 7.15625 C 15.679688 6.496094 16.21875 5.960938 16.878906 5.960938 C 17.539062 5.960938 18.074219 6.496094 18.074219 7.15625 C 18.074219 7.398438 17.878906 7.597656 17.636719 7.597656 Z M 17.636719 7.597656 "/>
<path style=" stroke:none;fill-rule:nonzero;fill:rgb(28.627451%,31.372549%,34.901961%);fill-opacity:1;" d="M 13.640625 5.996094 C 13.609375 5.996094 13.578125 5.992188 13.550781 5.988281 L 11.851562 5.628906 C 11.613281 5.582031 11.460938 5.347656 11.511719 5.109375 C 11.5625 4.871094 11.792969 4.71875 12.03125 4.769531 L 13.730469 5.125 C 13.96875 5.175781 14.121094 5.410156 14.070312 5.648438 C 14.027344 5.855469 13.84375 5.996094 13.640625 5.996094 Z M 13.640625 5.996094 "/>
<path style=" stroke:none;fill-rule:nonzero;fill:rgb(28.627451%,31.372549%,34.901961%);fill-opacity:1;" d="M 15.9375 5.996094 C 15.734375 5.996094 15.550781 5.855469 15.507812 5.648438 C 15.457031 5.410156 15.609375 5.175781 15.847656 5.125 L 17.546875 4.769531 C 17.785156 4.71875 18.015625 4.871094 18.066406 5.109375 C 18.117188 5.347656 17.964844 5.582031 17.726562 5.628906 L 16.027344 5.988281 C 15.996094 5.992188 15.96875 5.996094 15.9375 5.996094 Z M 15.9375 5.996094 "/>
<path style=" stroke:none;fill-rule:nonzero;fill:rgb(28.627451%,31.372549%,34.901961%);fill-opacity:1;" d="M 22.339844 9.789062 C 22.339844 10.007812 22.160156 10.1875 21.941406 10.1875 C 21.722656 10.1875 21.546875 10.007812 21.546875 9.789062 C 21.546875 9.570312 21.722656 9.390625 21.941406 9.390625 C 22.160156 9.390625 22.339844 9.570312 22.339844 9.789062 Z M 22.339844 9.789062 "/>
<path style=" stroke:none;fill-rule:nonzero;fill:rgb(28.627451%,31.372549%,34.901961%);fill-opacity:1;" d="M 24.871094 9.789062 C 24.871094 10.007812 24.691406 10.1875 24.472656 10.1875 C 24.253906 10.1875 24.074219 10.007812 24.074219 9.789062 C 24.074219 9.570312 24.253906 9.390625 24.472656 9.390625 C 24.691406 9.390625 24.871094 9.570312 24.871094 9.789062 Z M 24.871094 9.789062 "/>
<use xlink:href="#surface23" mask="url(#mask6)"/>
<path style=" stroke:none;fill-rule:nonzero;fill:rgb(80.392157%,35.686275%,35.686275%);fill-opacity:1;" d="M 8.0625 6.761719 C 6.585938 5.683594 6.378906 3.554688 6.964844 2.273438 C 7.089844 2.007812 7.457031 1.976562 7.625 2.214844 C 8.269531 3.136719 9.71875 4.214844 10.46875 4.34375 C 10.679688 4.378906 10.835938 4.5625 10.824219 4.777344 C 10.773438 5.570312 9.949219 6.832031 8.859375 6.972656 C 8.578125 7.011719 8.292969 6.929688 8.0625 6.761719 Z M 8.0625 6.761719 "/>
<path style=" stroke:none;fill-rule:nonzero;fill:rgb(28.627451%,54.117647%,40.784314%);fill-opacity:1;" d="M 11.535156 21.171875 C 10.8125 21.171875 10.179688 20.878906 9.648438 20.292969 C 9.335938 19.949219 9.363281 19.417969 9.707031 19.109375 C 10.046875 18.796875 10.578125 18.824219 10.890625 19.164062 C 11.136719 19.4375 11.378906 19.570312 11.878906 19.445312 C 12.328125 19.332031 12.785156 19.605469 12.898438 20.054688 C 13.007812 20.503906 12.738281 20.960938 12.289062 21.070312 C 12.027344 21.136719 11.773438 21.171875 11.535156 21.171875 Z M 11.535156 21.171875 "/>
</g>
</svg>
