<?xml version="1.0" encoding="UTF-8"?>
<svg xmlns="http://www.w3.org/2000/svg" xmlns:xlink="http://www.w3.org/1999/xlink" width="30pt" height="30pt" viewBox="0 0 30 30" version="1.1">
<defs>
<filter id="alpha" filterUnits="objectBoundingBox" x="0%" y="0%" width="100%" height="100%">
  <feColorMatrix type="matrix" in="SourceGraphic" values="0 0 0 0 1 0 0 0 0 1 0 0 0 0 1 0 0 0 1 0"/>
</filter>
<mask id="mask0">
  <g filter="url(#alpha)">
<rect x="0" y="0" width="30" height="30" style="fill:rgb(0%,0%,0%);fill-opacity:0.101961;stroke:none;"/>
  </g>
</mask>
<clipPath id="clip1">
  <rect width="30" height="30"/>
</clipPath>
<g id="surface6" clip-path="url(#clip1)">
<path style=" stroke:none;fill-rule:nonzero;fill:rgb(0%,0%,0%);fill-opacity:1;" d="M 7.148438 21.039062 C 7.347656 22.394531 7.710938 23.726562 8.675781 24.761719 C 10.777344 24.765625 12.914062 24.523438 14.90625 24.300781 L 8.644531 19.894531 C 8.25 20.316406 7.746094 20.707031 7.148438 21.039062 Z M 7.148438 21.039062 "/>
</g>
<mask id="mask1">
  <g filter="url(#alpha)">
<rect x="0" y="0" width="30" height="30" style="fill:rgb(0%,0%,0%);fill-opacity:0.101961;stroke:none;"/>
  </g>
</mask>
<clipPath id="clip2">
  <rect width="30" height="30"/>
</clipPath>
<g id="surface9" clip-path="url(#clip2)">
<path style=" stroke:none;fill-rule:nonzero;fill:rgb(0%,0%,0%);fill-opacity:1;" d="M 21.355469 24.199219 C 21.15625 23.671875 20.902344 23.242188 20.707031 22.953125 C 20.371094 22.457031 19.460938 21.277344 18.238281 21.078125 C 17.46875 20.953125 16.742188 21.472656 16.613281 22.242188 C 16.492188 22.992188 16.980469 23.699219 17.71875 23.855469 C 18.046875 24.023438 18.726562 24.878906 18.839844 25.675781 C 19.90625 25.3125 20.734375 24.824219 21.355469 24.199219 Z M 21.355469 24.199219 "/>
</g>
<mask id="mask2">
  <g filter="url(#alpha)">
<rect x="0" y="0" width="30" height="30" style="fill:rgb(0%,0%,0%);fill-opacity:0.101961;stroke:none;"/>
  </g>
</mask>
<clipPath id="clip3">
  <rect width="30" height="30"/>
</clipPath>
<g id="surface12" clip-path="url(#clip3)">
<path style=" stroke:none;fill-rule:nonzero;fill:rgb(0%,0%,0%);fill-opacity:1;" d="M 14.324219 26.449219 C 14.035156 25.488281 14.277344 24.28125 14.4375 23.976562 C 14.886719 23.359375 14.765625 22.496094 14.160156 22.027344 C 13.542969 21.546875 12.65625 21.660156 12.179688 22.277344 C 11.625 22.996094 11.210938 24.625 11.40625 26.246094 C 12.058594 26.394531 12.789062 26.46875 13.601562 26.46875 C 13.832031 26.46875 14.074219 26.460938 14.324219 26.449219 Z M 14.324219 26.449219 "/>
</g>
<mask id="mask3">
  <g filter="url(#alpha)">
<rect x="0" y="0" width="30" height="30" style="fill:rgb(0%,0%,0%);fill-opacity:0.0509804;stroke:none;"/>
  </g>
</mask>
<clipPath id="clip4">
  <rect width="30" height="30"/>
</clipPath>
<g id="surface15" clip-path="url(#clip4)">
<path style=" stroke:none;fill-rule:nonzero;fill:rgb(0%,0%,0%);fill-opacity:1;" d="M 12.976562 13.601562 C 10.078125 14.460938 8.113281 17.121094 8.4375 20.011719 C 8.78125 23.046875 9.417969 25.261719 14.246094 25.039062 C 11.28125 22.636719 11.167969 17.003906 12.976562 13.601562 Z M 12.976562 13.601562 "/>
</g>
<mask id="mask4">
  <g filter="url(#alpha)">
<rect x="0" y="0" width="30" height="30" style="fill:rgb(0%,0%,0%);fill-opacity:0.101961;stroke:none;"/>
  </g>
</mask>
<clipPath id="clip5">
  <rect width="30" height="30"/>
</clipPath>
<g id="surface18" clip-path="url(#clip5)">
<path style=" stroke:none;fill-rule:nonzero;fill:rgb(0%,0%,0%);fill-opacity:1;" d="M 10.195312 12.757812 C 10.195312 13 10 13.191406 9.761719 13.191406 C 9.519531 13.191406 9.328125 13 9.328125 12.757812 C 9.328125 12.519531 9.519531 12.324219 9.761719 12.324219 C 10 12.324219 10.195312 12.519531 10.195312 12.757812 Z M 10.195312 12.757812 "/>
<path style=" stroke:none;fill-rule:nonzero;fill:rgb(0%,0%,0%);fill-opacity:1;" d="M 13.320312 13.234375 C 13.320312 13.476562 13.125 13.671875 12.886719 13.671875 C 12.644531 13.671875 12.453125 13.476562 12.453125 13.234375 C 12.453125 12.996094 12.644531 12.800781 12.886719 12.800781 C 13.125 12.800781 13.320312 12.996094 13.320312 13.234375 Z M 13.320312 13.234375 "/>
<path style=" stroke:none;fill-rule:nonzero;fill:rgb(0%,0%,0%);fill-opacity:1;" d="M 11.644531 14.820312 C 11.644531 15.0625 11.449219 15.257812 11.210938 15.257812 C 10.96875 15.257812 10.773438 15.0625 10.773438 14.820312 C 10.773438 14.582031 10.96875 14.386719 11.210938 14.386719 C 11.449219 14.386719 11.644531 14.582031 11.644531 14.820312 Z M 11.644531 14.820312 "/>
</g>
<mask id="mask5">
  <g filter="url(#alpha)">
<rect x="0" y="0" width="30" height="30" style="fill:rgb(0%,0%,0%);fill-opacity:0.0509804;stroke:none;"/>
  </g>
</mask>
<clipPath id="clip6">
  <rect width="30" height="30"/>
</clipPath>
<g id="surface21" clip-path="url(#clip6)">
<path style=" stroke:none;fill-rule:nonzero;fill:rgb(0%,0%,0%);fill-opacity:1;" d="M 10.617188 2.242188 C 7.84375 3.046875 5.898438 5.683594 6.078125 8.683594 L 6.253906 11.585938 C 6.4375 14.710938 9.125 17.09375 12.253906 16.90625 L 15.6875 16.699219 C 10.511719 14.089844 9.183594 6.140625 10.617188 2.242188 Z M 10.617188 2.242188 "/>
</g>
</defs>
<g id="surface1">
<path style=" stroke:none;fill-rule:nonzero;fill:rgb(98.039216%,88.235294%,48.627451%);fill-opacity:1;" d="M 23.960938 4.074219 L 23.578125 2.996094 C 23.441406 2.609375 23.734375 2.207031 24.144531 2.21875 L 25.289062 2.25 C 25.421875 2.253906 25.554688 2.210938 25.660156 2.128906 L 26.570312 1.429688 C 26.894531 1.179688 27.367188 1.335938 27.484375 1.726562 L 27.808594 2.828125 C 27.84375 2.957031 27.925781 3.066406 28.035156 3.140625 L 28.980469 3.789062 C 29.320312 4.023438 29.320312 4.519531 28.980469 4.75 L 28.035156 5.398438 C 27.925781 5.476562 27.84375 5.585938 27.808594 5.714844 L 27.484375 6.8125 C 27.367188 7.207031 26.894531 7.359375 26.570312 7.113281 L 25.660156 6.414062 C 25.554688 6.332031 25.421875 6.289062 25.289062 6.292969 L 24.144531 6.324219 C 23.734375 6.335938 23.441406 5.929688 23.578125 5.546875 L 23.960938 4.464844 C 24.007812 4.339844 24.007812 4.203125 23.960938 4.074219 Z M 23.960938 4.074219 "/>
<path style=" stroke:none;fill-rule:nonzero;fill:rgb(100%,52.156863%,71.372549%);fill-opacity:1;" d="M 1.367188 16.835938 L 0.332031 16.34375 C -0.0390625 16.167969 -0.113281 15.675781 0.183594 15.394531 L 1.015625 14.605469 C 1.113281 14.515625 1.175781 14.390625 1.191406 14.257812 L 1.339844 13.121094 C 1.394531 12.714844 1.835938 12.488281 2.195312 12.683594 L 3.203125 13.234375 C 3.320312 13.296875 3.457031 13.320312 3.589844 13.292969 L 4.714844 13.085938 C 5.117188 13.007812 5.46875 13.363281 5.394531 13.765625 L 5.183594 14.890625 C 5.160156 15.023438 5.179688 15.160156 5.246094 15.277344 L 5.792969 16.28125 C 5.988281 16.640625 5.761719 17.085938 5.355469 17.140625 L 4.21875 17.285156 C 4.085938 17.304688 3.964844 17.367188 3.871094 17.464844 L 3.085938 18.296875 C 2.804688 18.59375 2.3125 18.515625 2.136719 18.144531 L 1.644531 17.109375 C 1.585938 16.988281 1.488281 16.894531 1.367188 16.835938 Z M 1.367188 16.835938 "/>
<path style=" stroke:none;fill-rule:nonzero;fill:rgb(63.921569%,89.019608%,100%);fill-opacity:1;" d="M 27.109375 22.953125 L 26.15625 23.222656 C 25.816406 23.320312 25.488281 23.046875 25.519531 22.695312 L 25.609375 21.707031 C 25.621094 21.59375 25.59375 21.476562 25.527344 21.378906 L 24.976562 20.558594 C 24.777344 20.265625 24.9375 19.863281 25.285156 19.785156 L 26.25 19.570312 C 26.363281 19.542969 26.464844 19.480469 26.535156 19.390625 L 27.148438 18.609375 C 27.363281 18.332031 27.792969 18.359375 27.976562 18.664062 L 28.480469 19.515625 C 28.539062 19.617188 28.632812 19.691406 28.742188 19.730469 L 29.667969 20.074219 C 30 20.195312 30.109375 20.613281 29.875 20.878906 L 29.222656 21.621094 C 29.144531 21.707031 29.101562 21.820312 29.097656 21.933594 L 29.058594 22.925781 C 29.046875 23.277344 28.679688 23.507812 28.355469 23.367188 L 27.445312 22.976562 C 27.339844 22.929688 27.222656 22.921875 27.109375 22.953125 Z M 27.109375 22.953125 "/>
<path style=" stroke:none;fill-rule:nonzero;fill:rgb(28.627451%,54.117647%,40.784314%);fill-opacity:1;" d="M 21.007812 20.519531 C 20.742188 20.519531 20.503906 20.460938 20.3125 20.34375 C 19.882812 20.074219 19.753906 19.507812 20.023438 19.078125 C 20.246094 18.722656 20.671875 18.570312 21.054688 18.679688 C 21.253906 18.652344 21.753906 18.472656 22.101562 18.015625 C 22.410156 17.613281 22.988281 17.539062 23.390625 17.847656 C 23.792969 18.15625 23.867188 18.734375 23.558594 19.136719 C 22.917969 19.972656 21.835938 20.519531 21.007812 20.519531 Z M 21.007812 20.519531 "/>
<path style=" stroke:none;fill-rule:nonzero;fill:rgb(36.078431%,70.196078%,55.686275%);fill-opacity:1;" d="M 14.90625 24.300781 C 10.648438 24.777344 5.75 25.332031 1.902344 23.445312 C 1.246094 23.121094 1.492188 22.136719 2.226562 22.148438 C 5.109375 22.210938 7.414062 21.21875 8.644531 19.894531 Z M 14.90625 24.300781 "/>
<use xlink:href="#surface6" mask="url(#mask0)"/>
<path style=" stroke:none;fill-rule:nonzero;fill:rgb(28.627451%,54.117647%,40.784314%);fill-opacity:1;" d="M 13.125 28.691406 C 12.578125 28.691406 12.058594 28.371094 11.828125 27.839844 C 10.949219 25.816406 11.441406 23.234375 12.179688 22.277344 C 12.65625 21.660156 13.542969 21.546875 14.160156 22.027344 C 14.765625 22.496094 14.886719 23.359375 14.4375 23.976562 C 14.261719 24.3125 13.988281 25.722656 14.421875 26.714844 C 14.730469 27.429688 14.402344 28.261719 13.6875 28.574219 C 13.503906 28.652344 13.3125 28.691406 13.125 28.691406 Z M 14.414062 24.007812 Z M 14.445312 23.960938 Z M 14.445312 23.960938 "/>
<path style=" stroke:none;fill-rule:nonzero;fill:rgb(28.627451%,54.117647%,40.784314%);fill-opacity:1;" d="M 20.257812 27.574219 C 20.210938 27.574219 20.164062 27.574219 20.121094 27.566406 C 19.34375 27.492188 18.773438 26.800781 18.851562 26.023438 C 18.9375 25.144531 18.097656 24.046875 17.71875 23.855469 C 16.980469 23.699219 16.492188 22.992188 16.613281 22.242188 C 16.742188 21.472656 17.46875 20.953125 18.238281 21.078125 C 19.460938 21.277344 20.371094 22.457031 20.707031 22.953125 C 21.125 23.570312 21.804688 24.828125 21.664062 26.300781 C 21.589844 27.027344 20.976562 27.574219 20.257812 27.574219 Z M 17.78125 23.867188 Z M 17.78125 23.867188 "/>
<use xlink:href="#surface9" mask="url(#mask1)"/>
<use xlink:href="#surface12" mask="url(#mask2)"/>
<path style=" stroke:none;fill-rule:nonzero;fill:rgb(36.078431%,70.196078%,55.686275%);fill-opacity:1;" d="M 21.257812 18.566406 C 21.628906 21.84375 21.449219 24.265625 15.484375 24.9375 C 9.519531 25.609375 8.808594 23.289062 8.4375 20.011719 C 8.070312 16.734375 10.640625 13.753906 14.179688 13.355469 C 17.71875 12.957031 20.890625 15.289062 21.257812 18.566406 Z M 21.257812 18.566406 "/>
<path style=" stroke:none;fill-rule:nonzero;fill:rgb(60.784314%,87.45098%,75.686275%);fill-opacity:1;" d="M 21.257812 18.566406 C 21.253906 18.542969 21.25 18.515625 21.25 18.488281 C 19.875 18.296875 17.214844 18.496094 15.59375 20.660156 C 14.410156 22.242188 14.390625 23.800781 14.671875 25.015625 C 14.933594 24.996094 15.203125 24.96875 15.484375 24.9375 C 21.449219 24.265625 21.628906 21.84375 21.257812 18.566406 Z M 21.257812 18.566406 "/>
<use xlink:href="#surface15" mask="url(#mask3)"/>
<path style=" stroke:none;fill-rule:nonzero;fill:rgb(36.078431%,70.196078%,55.686275%);fill-opacity:1;" d="M 19.570312 4.21875 C 18.371094 2.621094 16.453125 1.734375 14.457031 1.851562 L 12.007812 2 C 8.523438 2.207031 5.871094 5.203125 6.078125 8.683594 L 6.253906 11.585938 C 6.4375 14.710938 9.125 17.09375 12.253906 16.90625 L 25.242188 16.128906 C 27.582031 15.988281 29.367188 13.976562 29.226562 11.632812 L 29.109375 9.660156 C 28.96875 7.320312 26.957031 5.535156 24.613281 5.675781 L 22.933594 5.773438 C 21.621094 5.851562 20.359375 5.269531 19.570312 4.21875 Z M 19.570312 4.21875 "/>
<use xlink:href="#surface18" mask="url(#mask4)"/>
<path style=" stroke:none;fill-rule:nonzero;fill:rgb(100%,65.882353%,79.607843%);fill-opacity:1;" d="M 10.03125 6.222656 C 9.425781 6.257812 8.953125 6.539062 8.972656 6.847656 C 8.988281 7.15625 9.496094 7.378906 10.097656 7.34375 C 10.703125 7.308594 11.179688 7.027344 11.160156 6.714844 C 11.140625 6.40625 10.636719 6.183594 10.03125 6.222656 Z M 10.03125 6.222656 "/>
<path style=" stroke:none;fill-rule:nonzero;fill:rgb(100%,65.882353%,79.607843%);fill-opacity:1;" d="M 17.445312 6.902344 C 18.046875 6.867188 18.523438 6.585938 18.503906 6.277344 C 18.484375 5.96875 17.980469 5.746094 17.378906 5.78125 C 16.773438 5.816406 16.296875 6.097656 16.316406 6.410156 C 16.335938 6.71875 16.839844 6.941406 17.445312 6.902344 Z M 17.445312 6.902344 "/>
<path style=" stroke:none;fill-rule:nonzero;fill:rgb(28.627451%,31.372549%,34.901961%);fill-opacity:1;" d="M 10.535156 5.941406 C 10.304688 5.941406 10.109375 5.761719 10.097656 5.527344 C 10.058594 4.898438 10.539062 4.351562 11.171875 4.316406 C 11.476562 4.296875 11.773438 4.398438 12 4.601562 C 12.230469 4.804688 12.367188 5.085938 12.386719 5.390625 C 12.398438 5.632812 12.214844 5.84375 11.972656 5.855469 C 11.730469 5.871094 11.523438 5.6875 11.507812 5.445312 C 11.503906 5.371094 11.472656 5.308594 11.417969 5.261719 C 11.363281 5.210938 11.296875 5.1875 11.222656 5.191406 C 11.078125 5.203125 10.964844 5.328125 10.972656 5.476562 C 10.988281 5.71875 10.804688 5.925781 10.5625 5.941406 C 10.550781 5.941406 10.542969 5.941406 10.535156 5.941406 Z M 10.535156 5.941406 "/>
<path style=" stroke:none;fill-rule:nonzero;fill:rgb(28.627451%,31.372549%,34.901961%);fill-opacity:1;" d="M 15.378906 5.652344 C 15.148438 5.652344 14.957031 5.472656 14.941406 5.238281 C 14.921875 4.933594 15.023438 4.636719 15.226562 4.410156 C 15.429688 4.179688 15.710938 4.042969 16.019531 4.023438 C 16.324219 4.007812 16.617188 4.109375 16.847656 4.3125 C 17.078125 4.515625 17.210938 4.796875 17.230469 5.101562 C 17.246094 5.34375 17.0625 5.550781 16.820312 5.566406 C 16.574219 5.582031 16.367188 5.394531 16.351562 5.152344 C 16.347656 5.082031 16.316406 5.015625 16.265625 4.96875 C 16.210938 4.921875 16.140625 4.898438 16.070312 4.902344 C 16 4.90625 15.933594 4.9375 15.886719 4.992188 C 15.839844 5.046875 15.816406 5.113281 15.820312 5.1875 C 15.832031 5.429688 15.648438 5.636719 15.40625 5.652344 C 15.398438 5.652344 15.386719 5.652344 15.378906 5.652344 Z M 15.378906 5.652344 "/>
<path style=" stroke:none;fill-rule:nonzero;fill:rgb(28.627451%,31.372549%,34.901961%);fill-opacity:1;" d="M 22.960938 8.023438 C 22.960938 8.261719 22.765625 8.457031 22.523438 8.457031 C 22.285156 8.457031 22.089844 8.261719 22.089844 8.023438 C 22.089844 7.78125 22.285156 7.585938 22.523438 7.585938 C 22.765625 7.585938 22.960938 7.78125 22.960938 8.023438 Z M 22.960938 8.023438 "/>
<path style=" stroke:none;fill-rule:nonzero;fill:rgb(28.627451%,31.372549%,34.901961%);fill-opacity:1;" d="M 25.726562 7.855469 C 25.726562 8.097656 25.53125 8.292969 25.289062 8.292969 C 25.050781 8.292969 24.855469 8.097656 24.855469 7.855469 C 24.855469 7.617188 25.050781 7.421875 25.289062 7.421875 C 25.53125 7.421875 25.726562 7.617188 25.726562 7.855469 Z M 25.726562 7.855469 "/>
<use xlink:href="#surface21" mask="url(#mask5)"/>
<path style=" stroke:none;fill-rule:nonzero;fill:rgb(28.627451%,31.372549%,34.901961%);fill-opacity:1;" d="M 24.277344 14.082031 C 23.488281 14.128906 22.8125 13.527344 22.765625 12.742188 L 22.730469 12.136719 C 22.703125 11.683594 23.046875 11.292969 23.5 11.265625 L 24.710938 11.195312 C 25.164062 11.167969 25.550781 11.511719 25.578125 11.964844 L 25.617188 12.570312 C 25.664062 13.359375 25.0625 14.035156 24.277344 14.082031 Z M 24.277344 14.082031 "/>
<path style=" stroke:none;fill-rule:nonzero;fill:rgb(28.627451%,54.117647%,40.784314%);fill-opacity:1;" d="M 15.886719 22.695312 C 15.476562 22.695312 15.105469 22.421875 14.996094 22.007812 C 14.878906 21.5625 14.566406 21.398438 14.167969 21.226562 C 14.054688 21.179688 13.953125 21.132812 13.851562 21.070312 C 13.421875 20.800781 13.289062 20.234375 13.558594 19.804688 C 13.824219 19.382812 14.375 19.25 14.800781 19.5 C 14.824219 19.511719 14.855469 19.523438 14.890625 19.539062 C 15.308594 19.71875 16.417969 20.191406 16.773438 21.542969 C 16.902344 22.035156 16.609375 22.535156 16.117188 22.664062 C 16.039062 22.683594 15.960938 22.695312 15.886719 22.695312 Z M 14.8125 19.503906 C 14.816406 19.507812 14.820312 19.511719 14.824219 19.515625 C 14.820312 19.511719 14.816406 19.507812 14.8125 19.503906 Z M 14.8125 19.503906 "/>
</g>
</svg>
